<svg width="56" height="56" viewBox="0 0 56 56" fill="none" xmlns="http://www.w3.org/2000/svg">
<rect x="0.25" y="0.25" width="55.5" height="55.5" rx="7.75" stroke="#F89F9F" stroke-width="0.5"/>
<path d="M44 23.1345C44 25.2049 43.2389 27.2932 41.6995 28.8817L39.1395 31.5233L28.1211 42.8929C28.0692 42.9464 28.0519 42.9643 28 43C27.9481 42.9643 27.9308 42.9464 27.8789 42.8929L14.3005 28.8817C12.7611 27.2932 12 25.2228 12 23.1345C12 21.0462 12.7611 18.9579 14.3005 17.3694C17.3795 14.2102 22.3611 14.2102 25.44 17.3694L27.9827 20.011L30.5427 17.3694C33.6216 14.2102 38.5859 14.2102 41.6649 17.3694C43.2389 18.9579 44 21.0284 44 23.1345Z" stroke="#F89F9F" stroke-linecap="round" stroke-linejoin="round"/>
</svg>
