<svg width="20" height="15" viewBox="0 0 20 15" fill="none" xmlns="http://www.w3.org/2000/svg">
<path d="M0.976055 7.1961C1.08216 7.00209 1.25067 6.75081 1.48394 6.45863C1.89786 5.94016 2.48671 5.32905 3.21438 4.72681L2.98625 4.50141C2.24069 5.11472 1.63362 5.73989 1.20118 6.2766C0.952382 6.58539 0.767528 6.8573 0.647704 7.07429C0.587778 7.1828 0.548005 7.2706 0.524237 7.33712C0.502818 7.39708 0.500278 7.42354 0.500016 7.42352C0.499966 7.42351 0.5 7.42252 0.5 7.4206C0.5 7.73726 0.711869 8.28499 1.22362 8.97822C1.719 9.64925 2.44456 10.3877 3.34557 11.0741C5.15174 12.4501 7.6048 13.5743 10.2273 13.5743C10.8316 13.5743 11.4208 13.5118 11.9909 13.3983L11.7395 13.1499C11.2478 13.2383 10.7425 13.2865 10.2273 13.2865C7.7293 13.2865 5.3617 12.2126 3.59575 10.8672C2.71779 10.1984 2.01439 9.48134 1.53772 8.83564C1.29949 8.51293 1.1256 8.21846 1.0135 7.96601C0.95773 7.84042 0.919463 7.73017 0.895509 7.63604L0.89503 7.63416L0.895033 7.63416L0.893323 7.62733L0.848906 7.44991L0.929451 7.28571C0.942359 7.25939 0.95774 7.22958 0.976055 7.1961ZM0.976055 7.1961L1.41473 7.43602L0.976055 7.1961ZM16.5948 10.8162C16.5982 10.8134 16.6017 10.8105 16.6052 10.8077C17.427 10.1284 18.0784 9.40526 18.5182 8.76628C18.7381 8.44682 18.8982 8.15836 19.0011 7.91579C19.0772 7.73651 19.1098 7.61093 19.1243 7.53311L19.1464 7.41393L19.1115 7.29784C19.0956 7.24462 19.0658 7.16043 19.0078 7.04158L18.5584 7.2609L19.0078 7.04158C18.903 6.82691 18.7378 6.56428 18.5086 6.26803C18.0505 5.67606 17.3719 4.99536 16.5204 4.35146C14.8074 3.05624 12.496 1.98401 10 1.98401C9.28978 1.98401 8.59381 2.07987 7.92261 2.24786L7.67981 2.00796C8.42593 1.8099 9.20305 1.69621 10 1.69621C12.6213 1.69621 15.018 2.81945 16.7695 4.14382C17.6433 4.80449 18.3428 5.50513 18.8187 6.12018C19.0569 6.42799 19.233 6.7066 19.3475 6.94111C19.4664 7.18475 19.5 7.34277 19.5 7.4206C19.5 7.55189 19.453 7.76672 19.321 8.06237C19.1922 8.35075 18.996 8.68591 18.7338 9.04853C18.2729 9.68568 17.6236 10.3858 16.8228 11.0416L16.5948 10.8162ZM2.45818 0.735695C2.42581 0.705121 2.41518 0.672146 2.41518 0.643903C2.41518 0.615659 2.42581 0.582685 2.45818 0.552111C2.53175 0.48263 2.66224 0.48263 2.73581 0.552111L17.2554 14.2643C17.2878 14.2949 17.2984 14.3279 17.2984 14.3561C17.2984 14.3843 17.2878 14.4173 17.2554 14.4479C17.1819 14.5174 17.0514 14.5174 16.9778 14.4479L2.45818 0.735695ZM6.91145 8.37962L9.48478 10.9222C8.15262 10.6424 7.13852 9.62571 6.91145 8.37962ZM13.5909 7.84832L10.4101 4.70562C12.2065 4.79492 13.59 6.19232 13.5909 7.84832Z" fill="#6A6A6A" stroke="#434240"/>
</svg>
