<svg width="56" height="56" viewBox="0 0 56 56" fill="none" xmlns="http://www.w3.org/2000/svg">
<path d="M47.25 11.375H37.625V8.75C37.6192 7.59145 37.1565 6.48199 36.3372 5.66276C35.518 4.84353 34.4086 4.38075 33.25 4.375H22.75C21.5914 4.38075 20.482 4.84353 19.6628 5.66276C18.8435 6.48199 18.3807 7.59145 18.375 8.75V11.375H8.75C8.51794 11.375 8.29538 11.4672 8.13128 11.6313C7.96719 11.7954 7.875 12.0179 7.875 12.25C7.875 12.4821 7.96719 12.7046 8.13128 12.8687C8.29538 13.0328 8.51794 13.125 8.75 13.125H11.375V45.5C11.375 46.1962 11.6516 46.8639 12.1438 47.3562C12.6361 47.8484 13.3038 48.125 14 48.125H42C42.6962 48.125 43.3639 47.8484 43.8562 47.3562C44.3484 46.8639 44.625 46.1962 44.625 45.5V13.125H47.25C47.4821 13.125 47.7046 13.0328 47.8687 12.8687C48.0328 12.7046 48.125 12.4821 48.125 12.25C48.125 12.0179 48.0328 11.7954 47.8687 11.6313C47.7046 11.4672 47.4821 11.375 47.25 11.375ZM20.125 8.75C20.125 8.05381 20.4016 7.38613 20.8938 6.89384C21.3861 6.40156 22.0538 6.125 22.75 6.125H33.25C33.9462 6.125 34.6139 6.40156 35.1062 6.89384C35.5984 7.38613 35.875 8.05381 35.875 8.75V11.375H20.125V8.75ZM42.875 45.5C42.875 45.7321 42.7828 45.9546 42.6187 46.1187C42.4546 46.2828 42.2321 46.375 42 46.375H14C13.7679 46.375 13.5454 46.2828 13.3813 46.1187C13.2172 45.9546 13.125 45.7321 13.125 45.5V13.125H42.875V45.5ZM23.625 22.75V36.75C23.625 36.9821 23.5328 37.2046 23.3687 37.3687C23.2046 37.5328 22.9821 37.625 22.75 37.625C22.5179 37.625 22.2954 37.5328 22.1313 37.3687C21.9672 37.2046 21.875 36.9821 21.875 36.75V22.75C21.875 22.5179 21.9672 22.2954 22.1313 22.1313C22.2954 21.9672 22.5179 21.875 22.75 21.875C22.9821 21.875 23.2046 21.9672 23.3687 22.1313C23.5328 22.2954 23.625 22.5179 23.625 22.75ZM34.125 22.75V36.75C34.125 36.9821 34.0328 37.2046 33.8687 37.3687C33.7046 37.5328 33.4821 37.625 33.25 37.625C33.0179 37.625 32.7954 37.5328 32.6313 37.3687C32.4672 37.2046 32.375 36.9821 32.375 36.75V22.75C32.375 22.5179 32.4672 22.2954 32.6313 22.1313C32.7954 21.9672 33.0179 21.875 33.25 21.875C33.4821 21.875 33.7046 21.9672 33.8687 22.1313C34.0328 22.2954 34.125 22.5179 34.125 22.75Z" fill="#C4C4C4"/>
</svg>
