<svg width="21" height="21" viewBox="0 0 21 21" fill="none" xmlns="http://www.w3.org/2000/svg">
<path d="M18.7873 19.4815H19.3352L19.2852 18.9358C18.973 15.532 15.86 12.9259 12.148 12.9259H8.3192C4.58145 12.9259 1.44238 15.5191 1.06319 18.9262L1.00139 19.4815H1.56012H18.7873ZM12.9261 7.9696C13.7372 6.97582 14.2267 5.70535 14.2267 4.62963C14.2267 2.52066 12.3644 0.888889 10.1679 0.888889C7.97139 0.888889 6.10914 2.52066 6.10914 4.62963C6.10914 5.70535 6.59859 6.97582 7.40974 7.9696C8.23375 8.97913 9.23335 9.52778 10.1679 9.52778C11.1025 9.52778 12.1021 8.97913 12.9261 7.9696ZM14.7519 4.62963C14.7519 5.7737 14.2357 7.11187 13.3755 8.16581C12.5153 9.21961 11.3738 9.91667 10.1679 9.91667C8.96204 9.91667 7.8205 9.21961 6.96036 8.16581C6.1001 7.11187 5.58396 5.7737 5.58396 4.62963C5.58396 2.39192 7.59118 0.5 10.1679 0.5C12.7446 0.5 14.7519 2.39192 14.7519 4.62963ZM0.5 19.6128C0.5 15.748 3.9557 12.537 8.3192 12.537H12.148C16.4389 12.537 19.8358 15.6944 19.8358 19.4932C19.8358 19.6585 19.6735 19.8704 19.3725 19.8704H0.83192C0.603529 19.8704 0.5 19.712 0.5 19.6128Z" fill="#6A6A6A" stroke="#434240"/>
</svg>
