<svg width="32" height="32" viewBox="0 0 32 32" fill="none" xmlns="http://www.w3.org/2000/svg">
<path d="M16 3.5C13.8118 3.49977 11.6618 4.07396 9.76513 5.16519C7.86842 6.25641 6.2914 7.82642 5.19173 9.71825C4.09207 11.6101 3.50829 13.7574 3.49878 15.9456C3.48926 18.1338 4.05433 20.2862 5.13749 22.1875L4.01249 26.1375C3.94038 26.394 3.93789 26.665 4.00526 26.9228C4.07264 27.1806 4.20746 27.4158 4.39585 27.6041C4.58424 27.7925 4.81941 27.9274 5.07718 27.9947C5.33495 28.0621 5.60601 28.0596 5.8625 27.9875L9.8125 26.8625C11.4758 27.8096 13.3345 28.3621 15.2451 28.4773C17.1557 28.5926 19.0673 28.2675 20.8324 27.5271C22.5975 26.7868 24.169 25.651 25.4258 24.2073C26.6826 22.7636 27.591 21.0506 28.081 19.2003C28.5711 17.35 28.6297 15.4118 28.2523 13.5353C27.8748 11.6588 27.0715 9.89403 25.9042 8.37706C24.737 6.86009 23.2369 5.63145 21.5197 4.78587C19.8025 3.94029 17.9141 3.50036 16 3.5ZM16 27.5C13.9317 27.5048 11.901 26.9474 10.125 25.8875C10.0475 25.848 9.96198 25.8267 9.875 25.825H9.7375L5.5875 27.0125C5.5027 27.0353 5.4134 27.0353 5.32859 27.0126C5.24378 26.9899 5.16644 26.9452 5.10436 26.8831C5.04227 26.8211 4.99763 26.7437 4.97492 26.6589C4.95222 26.5741 4.95224 26.4848 4.97499 26.4L6.16249 22.25C6.19765 22.1193 6.17968 21.98 6.1125 21.8625C4.81898 19.6796 4.28374 17.1302 4.59013 14.6113C4.89653 12.0925 6.02736 9.74577 7.80648 7.93662C9.5856 6.12747 11.9131 4.95751 14.4264 4.609C16.9398 4.26048 19.4978 4.75298 21.7021 6.00977C23.9063 7.26656 25.633 9.21708 26.6132 11.5575C27.5935 13.8979 27.7721 16.4968 27.1214 18.9493C26.4706 21.4018 25.0271 23.5702 23.0155 25.1168C21.004 26.6634 18.5374 27.5013 16 27.5ZM22.3125 18.3125L19.7625 16.8625C19.53 16.7293 19.2663 16.6603 18.9983 16.6625C18.7304 16.6647 18.4678 16.738 18.2375 16.875L16.5125 17.9125C15.4734 17.3736 14.6264 16.5266 14.0875 15.4875L15.125 13.7625C15.262 13.5322 15.3353 13.2696 15.3375 13.0017C15.3397 12.7337 15.2707 12.47 15.1375 12.2375L13.6875 9.6875C13.5671 9.47896 13.394 9.30569 13.1856 9.18503C12.9772 9.06438 12.7408 9.00058 12.5 9C11.4413 8.99999 10.4258 9.41971 9.67598 10.1671C8.92619 10.9146 8.5033 11.9288 8.5 12.9875C8.49835 14.3674 8.76873 15.7342 9.29567 17.0095C9.82261 18.2849 10.5958 19.4439 11.571 20.4202C12.5461 21.3965 13.7042 22.1711 14.9789 22.6995C16.2537 23.228 17.6201 23.5 19 23.5H19.0125C20.0712 23.4967 21.0854 23.0738 21.8328 22.324C22.5803 21.5742 23 20.5587 23 19.5C22.9994 19.2592 22.9356 19.0228 22.815 18.8144C22.6943 18.606 22.521 18.4329 22.3125 18.3125ZM19.0125 22.5H19C16.4793 22.4967 14.063 21.493 12.2817 19.7094C10.5005 17.9259 9.49999 15.5082 9.5 12.9875C9.5033 12.194 9.82083 11.4342 10.3831 10.8743C10.9453 10.3143 11.7065 9.99999 12.5 10C12.564 10.0009 12.6266 10.0187 12.6815 10.0516C12.7364 10.0846 12.7816 10.1314 12.8125 10.1875L14.275 12.7375C14.3177 12.8162 14.34 12.9043 14.34 12.9937C14.34 13.0832 14.3177 13.1713 14.275 13.25L13.1 15.2C13.0567 15.2685 13.0317 15.347 13.0273 15.428C13.0229 15.509 13.0393 15.5897 13.075 15.6625C13.726 17.113 14.887 18.274 16.3375 18.925C16.4103 18.9606 16.491 18.9771 16.572 18.9727C16.653 18.9683 16.7314 18.9433 16.8 18.9L18.75 17.725C18.8287 17.6823 18.9167 17.66 19.0062 17.66C19.0957 17.66 19.1838 17.6823 19.2625 17.725L21.8125 19.1875C21.8686 19.2184 21.9154 19.2636 21.9484 19.3185C21.9813 19.3734 21.9991 19.436 22 19.5C22 20.2935 21.6856 21.0547 21.1257 21.6169C20.5658 22.1792 19.806 22.4967 19.0125 22.5Z" fill="white"/>
</svg>
