<svg width="36" height="36" viewBox="0 0 36 36" fill="none" xmlns="http://www.w3.org/2000/svg">
<g clip-path="url(#clip0_487_1930)">
<path d="M33.8872 19.3146L35.9813 7.73624C35.9993 7.63665 35.9962 7.53441 35.9724 7.43606C35.9485 7.33771 35.9044 7.24543 35.8429 7.16511C35.776 7.08868 35.6935 7.0275 35.6009 6.9857C35.5084 6.9439 35.4079 6.92245 35.3063 6.92281H6.80166L5.86708 1.7134C5.7818 1.23358 5.5305 0.799028 5.15715 0.485796C4.7838 0.172565 4.31219 0.000601981 3.82485 0H0.692281C0.508677 0 0.332592 0.0729367 0.202764 0.202765C0.0729365 0.332593 0 0.508677 0 0.692281C0 0.875886 0.0729365 1.05197 0.202764 1.1818C0.332592 1.31163 0.508677 1.38456 0.692281 1.38456H3.82485C3.98631 1.38611 4.14214 1.44404 4.2654 1.54833C4.38865 1.65263 4.47158 1.79672 4.49983 1.95569L9.32849 28.4874C8.64967 28.9812 8.1364 29.6691 7.85632 30.4604C7.57624 31.2518 7.5425 32.1094 7.75955 32.9203C7.9766 33.7312 8.43424 34.4573 9.07218 35.0029C9.71011 35.5485 10.4984 35.8881 11.3331 35.9767C12.1679 36.0654 13.0099 35.8991 13.7482 35.4997C14.4866 35.1004 15.0866 34.4866 15.4692 33.7394C15.8518 32.9923 15.999 32.1467 15.8915 31.3142C15.7839 30.4816 15.4266 29.7012 14.8667 29.0758H26.6701C26.0362 29.7846 25.6646 30.6895 25.6175 31.6393C25.5704 32.5891 25.8507 33.5263 26.4115 34.2943C26.9723 35.0624 27.7796 35.6147 28.6986 35.8591C29.6177 36.1035 30.5927 36.0252 31.4609 35.6371C32.3292 35.2491 33.0379 34.5749 33.4689 33.7272C33.8998 32.8795 34.0268 31.9095 33.8286 30.9794C33.6305 30.0493 33.1192 29.2154 32.3801 28.6169C31.6411 28.0185 30.7191 27.6917 29.7681 27.6913H10.5919L9.57079 22.153H30.4777C31.2884 22.1541 32.0738 21.8705 32.6969 21.3518C33.32 20.8331 33.7412 20.1121 33.8872 19.3146ZM14.5379 31.8449C14.5379 32.3926 14.3755 32.928 14.0712 33.3834C13.7669 33.8388 13.3345 34.1937 12.8285 34.4033C12.3225 34.6129 11.7657 34.6677 11.2286 34.5609C10.6914 34.454 10.198 34.1903 9.81072 33.803C9.42345 33.4157 9.15971 32.9223 9.05287 32.3852C8.94602 31.848 9.00086 31.2912 9.21044 30.7852C9.42003 30.2792 9.77496 29.8468 10.2303 29.5425C10.6857 29.2382 11.2211 29.0758 11.7688 29.0758C12.5032 29.0758 13.2075 29.3676 13.7268 29.8869C14.2462 30.4062 14.5379 31.1105 14.5379 31.8449ZM32.5372 31.8449C32.5372 32.3926 32.3748 32.928 32.0705 33.3834C31.7663 33.8388 31.3338 34.1937 30.8278 34.4033C30.3218 34.6129 29.765 34.6677 29.2279 34.5609C28.6907 34.454 28.1973 34.1903 27.81 33.803C27.4228 33.4157 27.159 32.9223 27.0522 32.3852C26.9453 31.848 27.0002 31.2912 27.2098 30.7852C27.4193 30.2792 27.7743 29.8468 28.2297 29.5425C28.685 29.2382 29.2204 29.0758 29.7681 29.0758C30.5025 29.0758 31.2069 29.3676 31.7262 29.8869C32.2455 30.4062 32.5372 31.1105 32.5372 31.8449ZM7.06127 8.30738H34.4756L32.5199 19.055C32.4379 19.5364 32.1875 19.9729 31.8134 20.2867C31.4393 20.6006 30.966 20.7713 30.4777 20.7684H9.32849L7.06127 8.30738Z" fill="black"/>
</g>
<defs>
<clipPath id="clip0_487_1930">
<rect width="36" height="36" fill="white"/>
</clipPath>
</defs>
</svg>
