<svg width="32" height="32" viewBox="0 0 32 32" fill="none" xmlns="http://www.w3.org/2000/svg">
<path d="M16 10.5C14.9122 10.5 13.8488 10.8226 12.9444 11.4269C12.0399 12.0313 11.3349 12.8902 10.9187 13.8952C10.5024 14.9002 10.3935 16.0061 10.6057 17.073C10.8179 18.1399 11.3417 19.1199 12.1109 19.8891C12.8801 20.6583 13.8601 21.1821 14.927 21.3943C15.9939 21.6065 17.0998 21.4976 18.1048 21.0813C19.1098 20.6651 19.9687 19.9601 20.5731 19.0556C21.1774 18.1512 21.5 17.0878 21.5 16C21.5 14.5413 20.9205 13.1424 19.8891 12.1109C18.8576 11.0795 17.4587 10.5 16 10.5ZM16 20.5C15.11 20.5 14.24 20.2361 13.4999 19.7416C12.7599 19.2471 12.1831 18.5443 11.8425 17.7221C11.5019 16.8998 11.4128 15.995 11.5865 15.1221C11.7601 14.2492 12.1887 13.4474 12.818 12.818C13.4474 12.1887 14.2492 11.7601 15.1221 11.5865C15.995 11.4128 16.8998 11.5019 17.7221 11.8425C18.5443 12.1831 19.2471 12.7599 19.7416 13.4999C20.2361 14.24 20.5 15.11 20.5 16C20.5 17.1935 20.0259 18.3381 19.182 19.182C18.3381 20.0259 17.1935 20.5 16 20.5ZM21.5 4H10.5C8.77609 4 7.12279 4.68482 5.90381 5.90381C4.68482 7.12279 4 8.77609 4 10.5V21.5C4 22.3536 4.16813 23.1988 4.49478 23.9874C4.82144 24.7761 5.30022 25.4926 5.90381 26.0962C7.12279 27.3152 8.77609 28 10.5 28H21.5C22.3536 28 23.1988 27.8319 23.9874 27.5052C24.7761 27.1786 25.4926 26.6998 26.0962 26.0962C26.6998 25.4926 27.1786 24.7761 27.5052 23.9874C27.8319 23.1988 28 22.3536 28 21.5V10.5C28 9.64641 27.8319 8.80117 27.5052 8.01256C27.1786 7.22394 26.6998 6.50739 26.0962 5.90381C25.4926 5.30022 24.7761 4.82144 23.9874 4.49478C23.1988 4.16813 22.3536 4 21.5 4ZM27 21.5C27 22.9587 26.4205 24.3576 25.3891 25.3891C24.3576 26.4205 22.9587 27 21.5 27H10.5C9.04131 27 7.64236 26.4205 6.61091 25.3891C5.57946 24.3576 5 22.9587 5 21.5V10.5C5 9.04131 5.57946 7.64236 6.61091 6.61091C7.64236 5.57946 9.04131 5 10.5 5H21.5C22.9587 5 24.3576 5.57946 25.3891 6.61091C26.4205 7.64236 27 9.04131 27 10.5V21.5ZM23.5 9.5C23.5 9.69778 23.4414 9.89112 23.3315 10.0556C23.2216 10.22 23.0654 10.3482 22.8827 10.4239C22.7 10.4996 22.4989 10.5194 22.3049 10.4808C22.1109 10.4422 21.9327 10.347 21.7929 10.2071C21.653 10.0673 21.5578 9.88907 21.5192 9.69509C21.4806 9.50111 21.5004 9.30004 21.5761 9.11732C21.6518 8.93459 21.78 8.77841 21.9444 8.66853C22.1089 8.55865 22.3022 8.5 22.5 8.5C22.7652 8.5 23.0196 8.60536 23.2071 8.79289C23.3946 8.98043 23.5 9.23478 23.5 9.5Z" fill="white"/>
</svg>
